<?xml version="1.0" encoding="utf-8"?>
<!-- Generator: Adobe Illustrator 27.5.0, SVG Export Plug-In . SVG Version: 6.00 Build 0)  -->
<svg version="1.1" id="Слой_1" xmlns="http://www.w3.org/2000/svg" xmlns:xlink="http://www.w3.org/1999/xlink" x="0px" y="0px"
	 viewBox="0 0 3000 2000" style="enable-background:new 0 0 3000 2000;" xml:space="preserve">
<rect style="fill:#EBF3FA;" width="3000" height="2000"/>
<g>
	<path style="fill:#D2E3FC;" d="M897.321,1286.488c0,0,95.43,20.013,90.609,37.54c-4.821,17.526-104.729-29.967-104.729-29.967
		s-73.664,65.882-83.916,99.462c0,0,107.586-15.22,98.6,0.581c-8.987,15.801-120.204,36.838-120.204,36.838
		s-50.573,77.889-6.191,112.14c44.382,34.251,78.44,22.735,86.742,11.531c8.302-11.203,40.485-91.829,50.037-85.432
		c9.552,6.398,3.779,67.459-18.108,93.779c0,0,96.086,0.76,110.042-44.709c13.957-45.469-7.513-70.227,1.623-98.168
		c9.136-27.941,24.625-44.71,26.306-28.15c1.681,16.561-22.206,60.355-12.673,89.93c9.533,29.575,13.654,52.026,38.814,14.86
		c25.16-37.166,50.156-112.229,24.952-139.754c-1.099-1.2-2.146-2.345-3.151-3.441c2.216,1.949,3.151,3.441,3.151,3.441
		c7.476-5.683,32.976-8.283,52.199-9.455c3.181,0.017,7.676-0.182,13.872-0.676h0c2.75-0.101,4.993-0.164,6.555-0.202
		c41.757,0.524,100.477,33.739,100.477,33.739l5.926-7.712c-54.381-45.06-119.575-32.551-119.575-32.551
		c-49.68,5.043-84.659-10.669-84.659-10.669s-11.381-96.234-85.848-84.377C968.173,1245.067,919.639,1259.127,897.321,1286.488z"/>
	<path style="fill:#DFEBFD;" d="M2155.544,475.641c-25.423-93.867-183.823-64.534-183.823-64.534s-107.557,164.268-138.846,168.179
		c-31.289,3.911,64.533-158.401,64.533-158.401c-60.622-5.867-215.112,68.445-215.112,68.445s9.777,191.646-21.512,187.735
		c-31.289-3.911,0-170.135,0-170.135c-58.667,17.601-113.423,86.045-113.423,86.045c-68.445,111.467,78.223,193.602,78.223,193.602
		s1.956,66.489-39.11,142.756c-0.001,0-0.003,0.002-0.003,0.002s-9.268,14.082-18.689,38.017h15.995
		c1.306-4.29,2.746-8.435,4.34-12.415c0-0.031,0.011-0.051,0.031-0.072c0.022-0.058,0.048-0.114,0.07-0.172
		c1.096-2.472,2.67-5.988,4.633-10.273c0.003-0.005,0.005-0.011,0.008-0.016c0-0.01,0.01-0.01,0.01-0.021
		c4.886-9.566,8.188-16.632,10.276-21.734c0.008-0.016,0.012-0.032,0.016-0.048c14.642-30.027,35.734-69.151,49.802-77.357
		c0,0-1.77-2.49-3.423-7.336c1.092,2.339,2.229,4.778,3.423,7.336c27.378,58.667,164.269,68.445,240.536,52.8
		c76.267-15.644,43.021-37.156,1.955-72.069c-41.067-34.913-127.112-25.709-152.535-39.398
		c-25.422-13.689,11.734-27.378,62.579-23.467c50.845,3.911,76.267,54.756,158.401,62.578
		c82.134,7.822,144.712-146.668,144.712-146.668c-56.712,17.6-158.401-13.689-162.313-33.245
		c-3.911-19.556,146.668-17.6,170.135-23.467S2180.967,569.508,2155.544,475.641z"/>
	<path style="fill:#D2E3FC;" d="M636.878,482.543c35.016-56.047,132.266-5.781,132.266-5.781s37.613,128.018,57.193,136.722
		c19.581,8.704-10.786-115.731-10.786-115.731c40.584,8.12,126.435,86.871,126.435,86.871s-44.092,122.722-22.972,126.339
		s33.497-110.656,33.497-110.656c34.692,22.998,56.83,78.295,56.83,78.295c22.57,85.975-88.995,110.518-88.995,110.518
		s-14.363,42.86-2.669,100.55l0.002,0.002c0,0,3.255,10.983,4.67,28.406l-10.403-3.149c-0.005-3.047-0.125-6.026-0.379-8.93
		c0.006-0.02,0.003-0.035-0.006-0.053c-0.003-0.042-0.008-0.084-0.012-0.126c-0.226-1.823-0.558-4.42-0.991-7.593
		c0-0.004-0.001-0.008-0.002-0.012c0.002-0.007-0.004-0.009-0.002-0.016c-1.294-7.184-2.051-12.43-2.404-16.159
		c-0.002-0.012-0.002-0.023-0.001-0.034c-3.611-22.413-9.627-52.012-17.161-60.12c0,0,1.641-1.271,3.671-4.097
		c-1.171,1.307-2.391,2.669-3.671,4.097c-29.358,32.767-120.317,12.174-166.841-13.017c-46.524-25.191-20.667-32.637,12.917-47.259
		c33.584-14.622,87.737,8.305,106.967,4.407c19.23-3.898-2.241-20.117-36.081-27.584c-33.84-7.467-60.386,20.598-115.346,9.514
		c-54.961-11.083-65.245-123.886-65.245-123.886c33.42,22.613,105.721,22.284,112.115,10.335
		c6.394-11.949-91.928-40.324-106.036-48.761C619.331,577.201,601.861,538.589,636.878,482.543z"/>
	<path style="fill:#DFEBFD;" d="M1459.258,475.835c-24.507-40.819-95.2-5.853-95.2-5.853s-28.728,91.733-42.943,97.753
		c-14.216,6.02,9.247-83.226,9.247-83.226c-29.338,5.331-92.183,60.96-92.183,60.96s30.194,88.963,14.934,91.298
		c-15.26,2.335-22.716-80.136-22.716-80.136c-25.283,16.123-41.936,55.673-41.936,55.673
		c-17.356,61.642,62.693,80.745,62.693,80.745s9.798,31.057,0.639,72.462l-0.001,0.001c0,0-2.485,7.87-3.727,20.402l7.534-2.136
		c0.042-2.195,0.167-4.339,0.387-6.427c-0.004-0.014-0.002-0.025,0.004-0.038c0.003-0.03,0.007-0.06,0.01-0.09
		c0.186-1.311,0.458-3.177,0.811-5.457c0-0.003,0.001-0.006,0.001-0.008c-0.001-0.005,0.003-0.006,0.002-0.011
		c1.024-5.158,1.636-8.927,1.938-11.609c0.001-0.009,0.001-0.017,0.001-0.025c2.887-16.098,7.599-37.342,13.129-43.086
		c0,0-1.166-0.936-2.592-2.998c0.827,0.956,1.688,1.953,2.592,2.998c20.729,23.978,86.512,10.306,120.346-7.246
		c33.834-17.552,15.303-23.245-8.702-34.206c-24.004-10.961-63.305,4.862-77.107,1.809c-13.802-3.053,1.872-14.462,26.342-19.409
		c24.471-4.946,43.234,15.608,82.965,8.326c39.73-7.282,48.579-88.405,48.579-88.405c-24.362,15.862-76.438,14.702-80.891,6.013
		c-4.454-8.688,66.733-27.873,77.003-33.769C1470.688,544.244,1483.766,516.654,1459.258,475.835z"/>
	<path style="fill:#95C38B;" d="M265.792,1554.776c-0.783,0.221-1.786,0.44-3.042,0.661
		C263.764,1555.195,264.767,1554.975,265.792,1554.776z"/>
	<g>
		<g>
			<path style="fill:#D86713;" d="M1265.017,988.832l-48.098,571.893c0,0-5.04,34.667,20.747,34.729
				c42.398,0.102,211.029,0,211.029,0s-31.91-7.217-31.523-23.453c0.456-19.139,56.216-588.58,56.216-588.58L1265.017,988.832z"/>
			<path style="fill:#F99746;" d="M1462.377,1585.077c-8.339,0.024-169.402,0.53-210.691,0
				c-17.995-0.224-21.149-15.999-21.299-26.209c-0.074-4.894,0.547-8.513,0.547-8.513l1.25-14.864l3.188-37.886l2.815-33.471
				l3.619-43.012l3.047-36.303l34.175-406.37l208.373-5.407c0,0-23.485,238.308-40.097,411.777
				c-1.855,19.327-3.619,37.86-5.25,55.159c-0.53,5.522-1.035,10.922-1.532,16.181c-1.541,16.412-2.948,31.484-4.174,44.791
				c-0.646,7.015-1.242,13.531-1.78,19.502c-2.12,23.394-3.362,38.332-3.378,41.173c-0.009,1.656,0.132,3.196,0.406,4.629
				C1435.017,1584.481,1459.247,1585.077,1462.377,1585.077z"/>
			<polygon style="fill:#F99746;" points="758.975,677.629 876.132,1148.227 892.173,1212.677 946.739,1431.867 1960.492,1431.867 
				1759.37,677.629 			"/>
			<polygon style="fill:#F99746;" points="758.973,677.629 742.736,683.041 925.153,1448.239 946.741,1431.869 			"/>
			<polygon style="fill:#D86713;" points="925.153,1448.239 1932.666,1448.239 1960.488,1431.869 946.741,1431.869 			"/>
			
				<rect x="1278.962" y="1585.306" transform="matrix(-1 -1.224647e-16 1.224647e-16 -1 2776.0654 3180.9775)" style="fill:#F1A34F;" width="218.142" height="10.366"/>
			<polygon style="fill:#F1A34F;" points="1911.38,1292.887 1746.886,687.601 761.456,687.601 758.975,677.629 1759.369,677.629 
				1923.313,1291.541 			"/>
			<polygon style="fill:#D86713;" points="1441.65,1448.235 1440.524,1456.16 1235.373,1497.605 1238.188,1464.135 
				1239.529,1448.235 			"/>
			<path style="opacity:0.4;fill:#D86713;" d="M1462.377,1585.077c-8.339,0.024-169.402,0.53-210.691,0
				c-17.995-0.224-21.149-15.999-21.299-26.209l204.183-38.415c-2.12,23.394-3.362,38.332-3.378,41.173
				c-0.009,1.656,0.132,3.196,0.406,4.629C1435.017,1584.481,1459.247,1585.077,1462.377,1585.077z"/>
			<polygon style="fill:#ED7D2B;" points="1392.065,1279.181 946.741,1431.869 892.173,1212.677 			"/>
			<polygon style="fill:#699DEE;" points="758.973,677.629 1759.369,677.629 1921.685,1283.799 909.879,1283.799 			"/>
		</g>
		
			<ellipse transform="matrix(0.672 -0.7405 0.7405 0.672 -530.6985 1522.6039)" style="fill:#D86713;" cx="1453.573" cy="1360.427" rx="24.428" ry="29.66"/>
		<polygon style="fill:#E4EDF9;" points="1874.503,1257.531 937.829,1257.531 831.752,834.958 823.622,802.552 816.681,774.911 
			800.413,710.099 1723.587,710.099 1741.452,774.911 1749.072,802.552 1758.005,834.958 		"/>
		<polygon style="fill:#AFCDFB;" points="1741.452,774.911 816.681,774.911 800.413,710.099 1723.587,710.099 		"/>
		<g>
			<path style="fill:#E9F3FE;" d="M838.603,739.389c-1.115-4.475,1.607-8.102,6.082-8.102c4.475,0,9.006,3.628,10.122,8.102
				c1.116,4.475-1.607,8.102-6.082,8.102S839.719,743.864,838.603,739.389z"/>
			<path style="fill:#E9F3FE;" d="M865.524,739.389c-1.116-4.475,1.607-8.102,6.082-8.102c4.475,0,9.006,3.628,10.122,8.102
				c1.116,4.475-1.607,8.102-6.082,8.102C871.171,747.491,866.64,743.864,865.524,739.389z"/>
			<path style="fill:#E9F3FE;" d="M894.512,739.389c-1.116-4.475,1.607-8.102,6.082-8.102c4.475,0,9.007,3.628,10.122,8.102
				c1.116,4.475-1.607,8.102-6.081,8.102C900.159,747.491,895.627,743.864,894.512,739.389z"/>
		</g>
		<polygon style="fill:#CAE0FF;" points="1668.164,1220.043 974.342,1220.043 868.755,805.688 1552.789,805.688 		"/>
		<polygon style="fill:#D2E3FC;" points="1757.894,902.1 1600.638,902.1 1571.887,805.688 1731.048,805.688 		"/>
		<polygon style="fill:#1C468A;" points="1333.647,846.041 1243.674,846.041 1239.971,832.169 1329.944,832.169 		"/>
		<polygon style="fill:#78ACEA;" points="1493.171,846.041 1345.978,846.041 1342.275,832.169 1489.469,832.169 		"/>
		<polygon style="fill:#78ACEA;" points="1348.768,883.417 1189.204,883.417 1185.501,869.545 1345.065,869.545 		"/>
		<polygon style="fill:#F1A34F;" points="1445.831,883.417 1363.124,883.417 1359.421,869.545 1442.128,869.545 		"/>
		<polygon style="fill:#699DEE;" points="1360.798,947.766 1270.825,947.766 1267.123,933.894 1357.096,933.894 		"/>
		<polygon style="fill:#78ACEA;" points="1520.322,947.766 1373.129,947.766 1369.426,933.894 1516.62,933.894 		"/>
		<polygon style="fill:#FFFFFF;" points="1375.919,985.143 1216.355,985.143 1212.653,971.271 1372.217,971.271 		"/>
		<polygon style="fill:#FFFFFF;" points="1472.982,985.143 1390.275,985.143 1386.573,971.271 1469.279,971.271 		"/>
		<polygon style="fill:#1C468A;" points="1279.304,1042.996 974.897,1042.996 971.195,1029.124 1275.602,1029.124 		"/>
		<polygon style="fill:#699DEE;" points="1388.736,1042.996 1298.763,1042.996 1295.061,1029.124 1385.034,1029.124 		"/>
		<polygon style="fill:#78ACEA;" points="1548.261,1042.996 1401.067,1042.996 1397.364,1029.124 1544.559,1029.124 		"/>
		<polygon style="fill:#FFFFFF;" points="1074.847,1080.372 984.873,1080.372 981.171,1066.5 1071.145,1066.5 		"/>
		<polygon style="fill:#F1A34F;" points="1403.857,1080.372 1244.293,1080.372 1240.591,1066.5 1400.155,1066.5 		"/>
		<polygon style="fill:#78ACEA;" points="1234.371,1080.372 1087.177,1080.372 1083.475,1066.5 1230.669,1066.5 		"/>
		<polygon style="fill:#78ACEA;" points="1500.92,1080.372 1418.214,1080.372 1414.511,1066.5 1497.217,1066.5 		"/>
		<polygon style="fill:#1C468A;" points="1313.862,1146.18 1009.456,1146.18 1005.753,1132.309 1310.16,1132.309 		"/>
		<polygon style="fill:#699DEE;" points="1423.295,1146.18 1333.321,1146.18 1329.619,1132.309 1419.592,1132.309 		"/>
		<polygon style="fill:#FFFFFF;" points="1109.405,1183.557 1019.432,1183.557 1015.729,1169.686 1105.703,1169.686 		"/>
		<polygon style="fill:#F1A34F;" points="1438.416,1183.557 1278.852,1183.557 1275.149,1169.686 1434.713,1169.686 		"/>
		<polygon style="fill:#78ACEA;" points="1268.93,1183.557 1121.735,1183.557 1118.033,1169.686 1265.227,1169.686 		"/>
		<polygon style="fill:#78ACEA;" points="1535.479,1183.557 1452.771,1183.557 1449.069,1169.686 1531.775,1169.686 		"/>
		<g>
			<polygon style="fill:#78ACEA;" points="1679.604,931.927 1610.4,932.141 1608.868,925.856 1678.071,925.642 			"/>
			<polygon style="fill:#78ACEA;" points="1716.101,931.815 1690.079,931.894 1688.547,925.609 1714.568,925.529 			"/>
			<polygon style="fill:#78ACEA;" points="1768.846,931.652 1722.854,931.794 1721.322,925.509 1767.313,925.367 			"/>
			<polygon style="fill:#78ACEA;" points="1652.214,947.915 1614.273,948.032 1612.742,941.747 1650.682,941.63 			"/>
			<polygon style="fill:#78ACEA;" points="1707.533,947.745 1658.537,947.896 1657.006,941.611 1706.002,941.459 			"/>
			<polygon style="fill:#78ACEA;" points="1772.719,947.544 1716.567,947.717 1715.035,941.432 1771.188,941.259 			"/>
		</g>
		<g>
			<polygon style="fill:#78ACEA;" points="1687.88,965.881 1618.677,966.095 1617.145,959.81 1686.348,959.596 			"/>
			<polygon style="fill:#78ACEA;" points="1724.377,965.769 1698.354,965.849 1696.823,959.564 1722.845,959.483 			"/>
			<polygon style="fill:#78ACEA;" points="1777.121,965.606 1731.131,965.748 1729.6,959.463 1775.59,959.321 			"/>
			<polygon style="fill:#78ACEA;" points="1660.49,981.869 1622.55,981.986 1621.019,975.701 1658.958,975.584 			"/>
			<polygon style="fill:#78ACEA;" points="1715.81,981.699 1666.813,981.85 1665.281,975.565 1714.278,975.414 			"/>
			<polygon style="fill:#78ACEA;" points="1780.995,981.498 1724.844,981.671 1723.313,975.386 1779.463,975.213 			"/>
		</g>
		<g>
			<polygon style="fill:#FFFFFF;" points="1633.609,819.071 1591.936,819.2 1591.014,815.415 1632.688,815.287 			"/>
			<polygon style="fill:#FFFFFF;" points="1655.588,819.003 1639.918,819.052 1638.995,815.267 1654.665,815.219 			"/>
			<polygon style="fill:#FFFFFF;" points="1687.351,818.905 1659.655,818.991 1658.732,815.206 1686.428,815.121 			"/>
			<polygon style="fill:#FFFFFF;" points="1617.115,828.699 1594.269,828.769 1593.346,824.985 1616.193,824.915 			"/>
			<polygon style="fill:#FFFFFF;" points="1650.429,828.597 1620.924,828.688 1620.001,824.903 1649.506,824.812 			"/>
			<polygon style="fill:#FFFFFF;" points="1689.684,828.476 1655.869,828.58 1654.946,824.795 1688.761,824.69 			"/>
		</g>
		<g>
			<polygon style="fill:#FFFFFF;" points="1638.594,839.518 1596.92,839.647 1595.997,835.862 1637.671,835.733 			"/>
			<polygon style="fill:#FFFFFF;" points="1660.572,839.451 1644.901,839.499 1643.979,835.714 1659.649,835.666 			"/>
			<polygon style="fill:#FFFFFF;" points="1692.334,839.352 1664.64,839.438 1663.717,835.653 1691.412,835.568 			"/>
			<polygon style="fill:#FFFFFF;" points="1622.1,849.146 1599.252,849.217 1598.33,845.432 1621.177,845.361 			"/>
			<polygon style="fill:#FFFFFF;" points="1655.413,849.044 1625.908,849.135 1624.985,845.35 1654.49,845.259 			"/>
			<polygon style="fill:#FFFFFF;" points="1694.667,848.922 1660.854,849.027 1659.931,845.242 1693.744,845.138 			"/>
		</g>
		<g>
			<polygon style="fill:#78ACEA;" points="1702.021,1023.896 1632.817,1024.109 1631.285,1017.825 1700.489,1017.611 			"/>
			<polygon style="fill:#78ACEA;" points="1738.518,1023.784 1712.496,1023.864 1710.964,1017.579 1736.986,1017.499 			"/>
			<polygon style="fill:#78ACEA;" points="1791.263,1023.621 1745.272,1023.763 1743.74,1017.479 1789.73,1017.336 			"/>
			<polygon style="fill:#78ACEA;" points="1674.631,1039.885 1636.691,1040.002 1635.159,1033.717 1673.099,1033.6 			"/>
			<polygon style="fill:#78ACEA;" points="1729.951,1039.714 1680.955,1039.865 1679.423,1033.58 1728.419,1033.429 			"/>
			<polygon style="fill:#78ACEA;" points="1795.137,1039.513 1738.985,1039.687 1737.453,1033.401 1793.604,1033.229 			"/>
		</g>
		<g>
			<polygon style="fill:#78ACEA;" points="1715.881,1080.758 1646.678,1080.971 1645.146,1074.686 1714.349,1074.473 			"/>
			<polygon style="fill:#78ACEA;" points="1752.378,1080.645 1726.355,1080.725 1724.824,1074.439 1750.846,1074.359 			"/>
			<polygon style="fill:#78ACEA;" points="1805.123,1080.482 1759.132,1080.624 1757.6,1074.339 1803.591,1074.197 			"/>
			<polygon style="fill:#78ACEA;" points="1688.49,1096.746 1650.551,1096.862 1649.02,1090.577 1686.959,1090.461 			"/>
			<polygon style="fill:#78ACEA;" points="1743.811,1096.575 1694.814,1096.727 1693.283,1090.441 1742.279,1090.29 			"/>
			<polygon style="fill:#78ACEA;" points="1808.996,1096.374 1752.845,1096.547 1751.313,1090.262 1807.464,1090.089 			"/>
		</g>
		<g>
			<polygon style="fill:#78ACEA;" points="1728.367,1131.986 1659.164,1132.199 1657.633,1125.914 1726.836,1125.701 			"/>
			<polygon style="fill:#78ACEA;" points="1764.865,1131.874 1738.843,1131.954 1737.311,1125.669 1763.333,1125.589 			"/>
			<polygon style="fill:#78ACEA;" points="1817.609,1131.711 1771.619,1131.853 1770.087,1125.567 1816.077,1125.426 			"/>
			<polygon style="fill:#78ACEA;" points="1700.978,1147.975 1663.038,1148.092 1661.506,1141.807 1699.445,1141.689 			"/>
			<polygon style="fill:#78ACEA;" points="1756.298,1147.804 1707.302,1147.955 1705.77,1141.67 1754.766,1141.519 			"/>
			<polygon style="fill:#78ACEA;" points="1821.483,1147.603 1765.332,1147.775 1763.8,1141.491 1819.951,1141.317 			"/>
		</g>
		<g>
			<g>
				<g>
					<path style="fill:#A8D29F;" d="M1760.972,1208.182c-11.122,0-22.811-9.048-26.058-20.169
						c-3.246-11.122,3.16-20.169,14.282-20.169c11.121,0,22.81,9.047,26.057,20.169
						C1778.5,1199.134,1772.093,1208.182,1760.972,1208.182z M1750.271,1171.526c-9.091,0-14.327,7.396-11.674,16.486
						s12.208,16.485,21.299,16.485c9.09,0,14.326-7.395,11.673-16.485S1759.361,1171.526,1750.271,1171.526z"/>
				</g>
				<g>
					<path style="fill:#A8D29F;" d="M1757.672,1198.271c-0.768-0.057-1.574-0.388-2.263-0.939l-11.316-9.063
						c-1.529-1.225-2.054-3.167-1.171-4.339c0.882-1.172,2.837-1.13,4.368,0.096l7.995,6.403l4.101-9.477
						c0.594-1.372,2.423-1.676,4.086-0.686c1.663,0.995,2.53,2.914,1.937,4.287l-5.39,12.457c-0.319,0.736-1.018,1.199-1.908,1.262
						C1757.966,1198.282,1757.819,1198.282,1757.672,1198.271z"/>
				</g>
			</g>
			<g>
				<g>
					<path style="fill:#F1A34F;" d="M1816.649,1208.182c-11.121,0-22.811-9.048-26.058-20.169
						c-3.246-11.122,3.16-20.169,14.281-20.169c11.122,0,22.811,9.047,26.058,20.169
						C1834.177,1199.134,1827.77,1208.182,1816.649,1208.182z M1805.949,1171.526c-9.092,0-14.328,7.396-11.674,16.486
						s12.208,16.485,21.299,16.485c9.09,0,14.327-7.395,11.673-16.485C1824.594,1178.922,1815.039,1171.526,1805.949,1171.526z"/>
				</g>
				<g>
					<path style="fill:#F1A34F;" d="M1811.725,1191.313L1811.725,1191.313c-1.568,0-3.227-1.284-3.686-2.853l-2.501-8.568
						c-0.458-1.568,0.451-2.853,2.02-2.853l0,0c1.569,0,3.228,1.284,3.686,2.853l2.501,8.568
						C1814.202,1190.028,1813.293,1191.313,1811.725,1191.313z"/>
					<path style="fill:#F1A34F;" d="M1813.996,1198.037h-0.616c-1.399,0-2.879-1.145-3.287-2.544l0,0
						c-0.408-1.399,0.402-2.544,1.802-2.544h0.616c1.398,0,2.878,1.145,3.286,2.544l0,0
						C1816.206,1196.893,1815.396,1198.037,1813.996,1198.037z"/>
				</g>
			</g>
		</g>
		<g>
			<g>
				<g>
					<path style="fill:#A8D29F;" d="M1698.929,892.813c-6.097,0-12.506-4.96-14.286-11.058c-1.779-6.098,1.733-11.058,7.83-11.058
						c6.098,0,12.507,4.96,14.286,11.058C1708.539,887.853,1705.026,892.813,1698.929,892.813z M1693.063,872.717
						c-4.984,0-7.855,4.055-6.4,9.039c1.455,4.984,6.693,9.039,11.678,9.039c4.983,0,7.854-4.054,6.399-9.039
						C1703.285,876.771,1698.047,872.717,1693.063,872.717z"/>
				</g>
				<g>
					<path style="fill:#A8D29F;" d="M1697.119,887.38c-0.42-0.031-0.862-0.212-1.24-0.515l-6.204-4.969
						c-0.839-0.672-1.126-1.737-0.642-2.379c0.483-0.642,1.556-0.619,2.395,0.053l4.384,3.511l2.248-5.196
						c0.325-0.752,1.329-0.919,2.24-0.376c0.912,0.545,1.387,1.598,1.062,2.351l-2.955,6.83c-0.175,0.404-0.558,0.658-1.046,0.691
						C1697.281,887.386,1697.201,887.386,1697.119,887.38z"/>
				</g>
			</g>
			<g>
				<g>
					<path style="fill:#A8D29F;" d="M1667.288,892.813c-6.098,0-12.506-4.96-14.286-11.058s1.732-11.058,7.83-11.058
						s12.506,4.96,14.286,11.058S1673.386,892.813,1667.288,892.813z M1661.422,872.717c-4.984,0-7.855,4.055-6.4,9.039
						c1.455,4.984,6.693,9.039,11.677,9.039c4.984,0,7.855-4.054,6.4-9.039C1671.644,876.771,1666.405,872.717,1661.422,872.717z"/>
				</g>
				<g>
					<path style="fill:#A8D29F;" d="M1665.479,887.38c-0.42-0.031-0.862-0.212-1.24-0.515l-6.204-4.969
						c-0.839-0.672-1.126-1.737-0.642-2.379c0.483-0.642,1.555-0.619,2.395,0.053l4.384,3.511l2.247-5.196
						c0.326-0.752,1.329-0.919,2.241-0.376c0.911,0.545,1.387,1.598,1.062,2.351l-2.955,6.83c-0.175,0.404-0.558,0.658-1.047,0.691
						C1665.641,887.386,1665.56,887.386,1665.479,887.38z"/>
				</g>
			</g>
			<g>
				<g>
					<path style="fill:#A8D29F;" d="M1634.514,892.813c-6.098,0-12.506-4.96-14.286-11.058s1.732-11.058,7.83-11.058
						s12.506,4.96,14.286,11.058S1640.611,892.813,1634.514,892.813z M1628.647,872.717c-4.984,0-7.855,4.055-6.4,9.039
						c1.455,4.984,6.693,9.039,11.677,9.039c4.984,0,7.855-4.054,6.4-9.039C1638.869,876.771,1633.631,872.717,1628.647,872.717z"/>
				</g>
				<g>
					<path style="fill:#A8D29F;" d="M1632.705,887.38c-0.421-0.031-0.863-0.212-1.241-0.515l-6.204-4.969
						c-0.839-0.672-1.126-1.737-0.642-2.379c0.483-0.642,1.556-0.619,2.395,0.053l4.384,3.511l2.248-5.196
						c0.325-0.752,1.328-0.919,2.24-0.376c0.912,0.545,1.387,1.598,1.062,2.351l-2.955,6.83c-0.175,0.404-0.558,0.658-1.046,0.691
						C1632.866,887.386,1632.785,887.386,1632.705,887.38z"/>
				</g>
			</g>
			<g>
				<g>
					<path style="fill:#F1A34F;" d="M1729.455,892.813c-6.097,0-12.506-4.96-14.286-11.058s1.733-11.058,7.83-11.058
						c6.098,0,12.507,4.96,14.286,11.058C1739.065,887.853,1735.553,892.813,1729.455,892.813z M1723.589,872.717
						c-4.984,0-7.855,4.055-6.4,9.039c1.455,4.984,6.693,9.039,11.678,9.039c4.983,0,7.854-4.054,6.399-9.039
						C1733.812,876.771,1728.572,872.717,1723.589,872.717z"/>
				</g>
				<g>
					<path style="fill:#F1A34F;" d="M1726.756,883.565L1726.756,883.565c-0.86,0-1.77-0.704-2.021-1.564l-1.372-4.697
						c-0.25-0.86,0.248-1.564,1.107-1.564l0,0c0.86,0,1.77,0.704,2.021,1.564l1.372,4.697
						C1728.113,882.861,1727.615,883.565,1726.756,883.565z"/>
					<path style="fill:#F1A34F;" d="M1728.001,887.252h-0.338c-0.768,0-1.578-0.628-1.803-1.395l0,0
						c-0.224-0.767,0.221-1.395,0.988-1.395h0.338c0.767,0,1.578,0.628,1.802,1.395l0,0
						C1729.213,886.624,1728.768,887.252,1728.001,887.252z"/>
				</g>
			</g>
		</g>
	</g>
	<g>
		<g>
			<path style="fill:#E49963;" d="M664.428,1199.137c0,0,16.67,4.281,27.267,1.09c10.597-3.192,28.835,2.051,31.771,5.914
				c2.937,3.864,1.858,5.399-3.383,6.732c-5.241,1.334-23.808,9.254-36.012,4.67c-12.203-4.584-28.119-4.75-28.119-4.75
				L664.428,1199.137z"/>
			<path style="fill:#4A75CB;" d="M520.36,1054.333c0,0,18.726,133.093,49.734,145.014c15.3,5.882,82.919,19.216,102.92,20.556
				c0,0,4.9-3.976,3.706-20.155c0,0-70.844-26.009-80.908-40.153c-14.979-21.051,9.299-85.998-9.497-105.769
				C567.521,1034.054,535.865,1025.557,520.36,1054.333z"/>
		</g>
		<path style="fill:#2B478B;" d="M531.18,1582.028h9.041c4.635,0,8.428-3.792,8.428-8.428v-209.786c0-4.636-3.792-8.428-8.428-8.428
			h-9.041c-4.635,0-8.428,3.792-8.428,8.428v209.786C522.752,1578.236,526.544,1582.028,531.18,1582.028z"/>
		<path style="fill:#2B478B;" d="M455.785,1596.926c8.377-17.338,40.977-30.268,79.915-30.268s71.539,12.93,79.915,30.268H455.785z"
			/>
		<path style="fill:#2B478B;" d="M477.066,1538.134h117.268c1.233,0,2.242-1.009,2.242-2.241v-4.649
			c0-1.233-1.009-2.242-2.242-2.242H477.066c-1.233,0-2.242,1.009-2.242,2.242v4.649
			C474.825,1537.125,475.833,1538.134,477.066,1538.134z"/>
		<path style="fill:#163560;" d="M526.671,1334.734c5.463,9.267,11.781,17.949,18.293,26.173
			c20.126,25.407,42.035,46.356,45.852,66.159c0.758,3.946,1.964,8.197,3.538,12.675c1.594,4.536,3.564,9.306,5.838,14.236
			c8.54,18.552,21.313,39.34,34.065,58.235c22.045,32.665,42.774,59.922,42.774,59.922l38.016-1.62
			c-1.523-3.811-18.103-48.913-40.284-104.03c-9.007-22.375-18.584-46.176-27.825-69.128c-1.231-3.065-2.462-6.117-3.681-9.144
			c-2.825-7.024-5.605-13.938-8.32-20.671c-20.827-51.755-37.415-92.967-37.415-92.967s-83.241-31.532-91.885-11.101
			C498.509,1280.322,504.315,1296.827,526.671,1334.734z"/>
		<path style="fill:#163560;" d="M678.219,1565.223c0,0,1.945,31.37,8.014,31.819c0.808,0.061,30.782,0.061,30.782,0.061
			l38.264-0.223c0,0-0.251-9.22-11.435-11.169c-11.185-1.949-29.906-9.81-36.682-24.592
			C700.034,1545.566,678.219,1565.223,678.219,1565.223z"/>
		<path style="fill:#163560;" d="M590.191,1475.605c0,0-26.442,16.99-23.876,22.509c0.341,0.733,14.954,26.905,14.954,26.905
			l18.847,33.302c0,0,7.928-4.713,4.177-15.429c-3.75-10.717-6.014-30.895,3.591-44.017
			C617.988,1485.071,590.191,1475.605,590.191,1475.605z"/>
		<path style="fill:#1C468A;" d="M627.425,1260.543c0,0,103.025,64.148,114.688,107.885
			c11.663,43.737-138.987,137.043-138.987,137.043s-16.523-14.578-19.439-25.27c0,0,68.096-81.584,82.867-99.872
			c9.072-11.231-134.135-38.881-151.629-66.095c-17.495-27.214-11.232-50.111-11.232-50.111L627.425,1260.543z"/>
		<path style="fill:#EE9849;" d="M428.782,1401.5h213.837c4.277,0,7.776-3.499,7.776-7.775v-42.768c0-4.277-3.499-7.776-7.776-7.776
			H428.782c-4.277,0-7.776,3.499-7.776,7.776v42.768C421.006,1398.001,424.505,1401.5,428.782,1401.5z"/>
		<path style="fill:#E49963;" d="M577.653,1031.518c10.262,6.356,15.918,14.425,15.918,14.425
			c-25.031,6.475-66.526-16.721-66.526-16.721s16.111-10.825,22.08-34.613c0.302-1.2,0.578-2.431,0.82-3.69
			c0.783-4.006,1.268-8.344,1.356-13.025l11.498,10.3l19.12,17.13c0,0-0.434,7.107-2.825,19.334
			C578.677,1026.791,578.2,1029.081,577.653,1031.518z"/>
		<path style="fill:#739AF0;" d="M500.539,1149.7c3.585,48.223-1.131,121.563,2.936,134.265c3.51,10.959,43.506,4.444,59.471,0.785
			c5.909-1.354,13.066-3.288,20.458-5.575c20.619-6.385,43.086-15.501,45.497-22.27c0.093-0.266,0.173-0.524,0.223-0.778
			c0.222-0.982,0.173-1.903-0.043-2.837c-0.804-3.449-3.9-7.182-4.265-15.724c-0.408-9.537-0.346-20.768-0.704-32.845
			c-0.019-1.359-0.037-2.843-0.186-4.196l-0.006-0.495c-0.006-0.26-0.013-0.513-0.018-0.772
			c-0.346-13.468-1.051-27.628-1.867-41.671c-0.52-8.819-1.119-17.553-1.811-25.922c-1.799-21.602-4.222-40.812-7.429-52.956
			c-5.241-19.797-16.799-32.709-27.319-42.172l-7.609-6.526c-8.492,1.854-18.53,0.624-27.609-3.678
			c-9.827-4.667-13.22-8.011-14.933-6.749C512.628,1037.094,496.305,1090.749,500.539,1149.7z"/>
		<path style="fill:#4A75CB;" d="M583.404,1279.175c20.619-6.385,43.086-15.501,45.497-22.27c0.093-0.266,0.173-0.524,0.223-0.778
			c-0.013-0.945-0.025-1.892-0.043-2.837c-0.804-3.449-3.9-7.182-4.265-15.724c-0.408-9.537-0.346-20.768-0.704-32.845
			c-0.019-1.359-0.037-2.843-0.186-4.196l-0.006-0.495c-0.006-0.26-0.013-0.513-0.018-0.772l-77.884-35.323
			C546.017,1163.935,541.529,1226.707,583.404,1279.175z"/>
		<path style="fill:#D68D5D;" d="M581.918,1005.324c0,0-0.434,7.107-2.825,19.334c-18.67-6.033-27.14-22.896-29.968-30.049
			c-0.804-2.021-1.153-3.27-1.153-3.27s0.724-0.156,1.973-0.42c2.625-0.558,7.567-1.606,12.854-2.725L581.918,1005.324z"/>
		<path style="fill:#E49963;" d="M589.477,1005.137c0,0-41.019,4.627-43.506-20.962c-2.488-25.589-9.458-42.225,16.626-46.261
			c26.084-4.036,32.129,5.233,35.037,13.572C600.542,959.825,600.083,1003.273,589.477,1005.137z"/>
		<path style="fill:#2B478B;" d="M546.147,985.94c0,0,2.601-33.966,39.939-37.484c25.575-2.41,11.316-24.421,8.59-27.932
			c0,0-19.594,2.686-39.679,6.005C512.841,933.494,542.007,980.653,546.147,985.94z"/>
		<g>
			
				<rect x="759.879" y="1136.638" transform="matrix(-0.9511 -0.3089 0.3089 -0.9511 1119.9272 2549.4294)" style="fill:#4A75CB;" width="3.775" height="98.856"/>
			
				<rect x="644.629" y="1226.345" transform="matrix(-0.9998 -0.0214 0.0214 -0.9998 1366.5865 2473.4856)" style="fill:#4A75CB;" width="103.737" height="6.206"/>
		</g>
		<g>
			<path style="fill:#E49963;" d="M655.85,1219.599c0,0,16.096,6.094,26.98,4.089s28.433,5.217,30.926,9.381
				c2.493,4.164,1.252,5.571-4.104,6.319c-5.357,0.747-24.684,6.572-36.307,0.671c-11.623-5.901-27.424-7.821-27.424-7.821
				L655.85,1219.599z"/>
			<path style="fill:#739AF0;" d="M528.625,1059.794c0,0,3.938,134.347,33.443,149.613c14.558,7.533,80.294,28.24,100.027,31.776
				c0,0,5.308-3.41,5.905-19.623c0,0-67.544-33.66-75.988-48.828c-12.566-22.574,18.723-84.449,2.222-106.172
				C577.733,1044.839,547.207,1032.903,528.625,1059.794z"/>
		</g>
	</g>
	<g>
		<path style="fill:#233862;" d="M1649.545,1592.775c0,0,1.506-11.733,4.994-18.711c3.488-6.977,25.688-2.537,25.688-2.537
			s4.439,3.806,5.392,21.565L1649.545,1592.775z"/>
		<path style="fill:#233862;" d="M1573.912,1592.617c5.217-3.185,2.248-26.936,2.248-26.936s-24.306-19.444-27.647-4.558
			c-3.342,14.888-23.09,21.571-34.331,23.395c-7.761,1.259-10.163,5.557-10.907,8.099H1573.912z"/>
		<path style="fill:#213F7A;" d="M1624.257,1419.868c-0.989,5.452-1.617,9.923-1.783,13.13
			c-2.26,44.072-37.1,144.842-43.331,147.191c-9.643,3.64-24.826-4.095-32.771-6.626c-3.291-1.051-5.513-4.371-4.78-7.739
			c17.253-79.316,23.594-193.529,25.901-261.148c1.165-34.06,7.012-57.587,7.012-57.587s84.972-22.672,85.477,6.008
			C1660.429,1278.475,1631.835,1378.003,1624.257,1419.868z"/>
		<path style="fill:#233862;" d="M1624.257,1419.868l-56.764-115.192c1.165-34.06,7.012-57.587,7.012-57.587
			s84.972-22.672,85.477,6.008C1660.429,1278.475,1631.835,1378.003,1624.257,1419.868z"/>
		<path style="fill:#213F7A;" d="M1605.352,1253.197l44.92,325.565c0,0,19.726,4.757,35.068,0.952
			c0,0,13.151-173.151,12.056-215.012c-1.096-41.861,9.438-112.012-2.404-119.748
			C1683.148,1237.218,1605.352,1253.197,1605.352,1253.197z"/>
		<path style="fill:#2B478B;" d="M1698.147,1169.608l5.599,78.164c0.217,2.941-1.666,5.617-4.498,6.439
			c-6.266,1.818-13.491,3.084-27.424,5.971c-13.087,2.718-30.693,5.125-52.327,5.258c-34.408,0.22-47.436-11.641-47.436-11.641
			c-1.482,0.027,0.782-7.175,2.823-41.414c0.691-11.599,1.359-26.301,1.84-44.882c0.435-16.72,0.728-36.582,0.755-60.146
			c0.036-28.346,43.912-58.843,44.722-58.843l0.01,0.014c0,4.082,6.433,11.613,16.339,12.263
			c11.76,0.769,26.187-5.083,26.187-11.855c0-0.068,21.258,34.006,28.808,70.313c0.961,4.604,1.702,9.458,2.293,14.569
			c0.009,0.077,0.019,0.155,0.027,0.233c0.109,0.933,0.21,1.871,0.307,2.818c0.019,0.165,0.032,0.334,0.05,0.499
			c0.088,0.859,0.175,1.729,0.252,2.604c0.023,0.247,0.041,0.503,0.064,0.75c0.073,0.801,0.142,1.597,0.206,2.406
			c0.004,0.074,0.013,0.146,0.018,0.22c0.051,0.6,0.092,1.204,0.138,1.808c0.032,0.426,0.064,0.86,0.096,1.29
			c0.051,0.71,0.096,1.414,0.146,2.133c0.023,0.356,0.046,0.714,0.068,1.075c0.041,0.677,0.083,1.359,0.124,2.05
			c0.019,0.302,0.036,0.608,0.055,0.915c0.055,0.988,0.11,1.986,0.16,2.992c0.005,0.083,0.009,0.16,0.014,0.243
			c0.051,0.965,0.097,1.939,0.142,2.919c0.014,0.242,0.023,0.48,0.032,0.723c0.046,0.92,0.087,1.844,0.124,2.777
			c0.004,0.138,0.014,0.275,0.019,0.412C1697.974,1164.955,1698.061,1167.266,1698.147,1169.608c0.005,0.06,0.005,0.119,0.009,0.179
			L1698.147,1169.608z"/>
		<path style="fill:#2B478B;" d="M1622.202,1048.518c0,0-40.8-0.347-50.618,13.424c-9.819,13.771-31.349,87.852-20.113,112.502
			c11.234,24.65,32.256-10.197,43.924-25.296C1607.062,1134.049,1622.202,1048.518,1622.202,1048.518z"/>
		<path style="fill:#FFB27D;" d="M1621.785,1042.289l0.023,4.219c0,0-1.149,13.189,15.093,15.115
			c16.242,1.932,28.546-5.144,28.106-15.321c-1.463-7.881-3.069-13.293-3.178-19.814c-0.04-2.423,0.126-4.994,0.577-7.898
			l-31.473-0.629l-9.27,1.515L1621.785,1042.289z"/>
		<path style="fill:#E2915A;" d="M1621.665,1019.476l0.12,22.813c3.344,1.555,7.115,2.504,11.345,2.504
			c14.464,0,23.813-10.607,28.7-18.306c-0.04-2.423,0.126-4.994,0.577-7.898l-31.473-0.629L1621.665,1019.476z"/>
		<path style="fill:#FFB27D;" d="M1664.818,1013.525c-3.651,19.652-29.009,19.007-39.968,17.771
			c-3.084-0.344-5.024-0.736-5.024-0.736c-3.477-0.93-5.417-6.406-6.318-13.581c-1.789-14.198,0.472-35.04,2.869-40.371
			c3.609-8.021,10.409-16.696,35.945-10.437C1677.863,972.436,1669.504,988.346,1664.818,1013.525z"/>
		<path style="fill:#233862;" d="M1580.48,1103.726c0,0-15.779,34.849-15.32,45.294c0,0,7.814-0.269,15.32,1.97
			C1592.816,1154.667,1580.48,1103.726,1580.48,1103.726z"/>
		<path style="fill:#233862;" d="M1608.54,957.903c0,0,11.24-0.865,24.498-6.629c10.761-4.678,24.337,0.474,28.743,2.795
			c-0.118-0.71-0.402-1.68-1.075-2.651c0,0,1.979,1.403,2.271,3.364c0.204,0.15,0.295,0.254,0.242,0.289c0,0,2.243-0.41,3.685,0.238
			c0,0-1.009-0.144-1.369,0.504c-0.038,0.068-0.095,0.126-0.161,0.178c16.785,8.11,18.335,34.639,12.934,40.776
			c-6.498,7.385-14.291,24.016-14.291,24.016s-2.842-3.929-1.66-10.428c1.182-6.499-4.432-6.499-11.521-9.453
			c-7.09-2.954-1.182-11.225-7.386-16.247c-6.203-5.021-28.949-2.067-28.653-5.908
			C1606.354,975.673,1608.54,958.768,1608.54,957.903z"/>
		<path style="fill:#233862;" d="M1669.962,1169.005c-6.662,26.749-78.701,40.571-95.077,43.381
			c0.691-11.599,1.359-26.301,1.84-44.882L1669.962,1169.005z"/>
		<path style="fill:#FFB27D;" d="M1654.148,1177.698c0.687,0,16.015-2.288,18.76-3.661c2.745-1.372,15.302-19.217,7.079-23.793
			c-8.223-4.575-30.298,13.728-30.298,13.728L1654.148,1177.698z"/>
		<path style="fill:#2B478B;" d="M1560.918,1183c0,0,59.283,3.217,99.068-5.302c0,0,1.004-11.494-11.5-16.599
			c0,0-62.007-13.143-76.902-9.482C1556.688,1155.277,1560.918,1183,1560.918,1183z"/>
		<path style="fill:#2B478B;" d="M1697.063,1136.477c-12.305,14.834-28.388,26.945-46.118,29.782l-0.005-0.004
			c-0.146-0.225-5.367-8.149-4.388-19.799c0.453-5.391,2.232-11.581,6.456-18.175c1.3-2.026,2.457-4.396,3.487-7.027
			c9.682-24.704,8.24-72.318,8.24-72.318s41.116,4.306,53.928,22.608C1726.512,1082.754,1716.505,1113.021,1697.063,1136.477z"/>
		<path style="fill:#E2915A;" d="M1624.851,1031.297c-3.084-0.344-5.024-0.736-5.024-0.736c-3.477-0.93-5.417-6.406-6.318-13.581
			c6.52,1.606,9.508,6.643,10.752,8.79C1624.823,1026.734,1624.938,1028.899,1624.851,1031.297z"/>
		<path style="fill:#FFB27D;" d="M1608.285,1042.412c0,0-14.2-23.432-3.157-24.451c11.043-1.019,15.479,6.454,17.074,9.199
			c1.595,2.746-0.417,15.129-0.417,15.129L1608.285,1042.412z"/>
		<path style="fill:#2B478B;" d="M1662.407,1145.669c-0.435,2.97-1.322,5.701-2.421,8.136c-3.468,7.7-9.041,12.454-9.041,12.454
			l-0.005-0.004c-36.879-16.646-44.342-73.81-45.591-105.217c-0.504-12.624,0-21.089,0-21.089
			c16.637-5.509,21.313,4.063,21.313,4.063s19.644,46.712,29.834,77.241C1660.395,1132.935,1662.906,1142.251,1662.407,1145.669z"/>
		<path style="fill:#233862;" d="M1697.063,1136.477c-12.305,14.834-28.388,26.945-46.118,29.782l-0.005-0.004
			c-36.879-16.646-44.342-73.81-45.591-105.217c0,0,17.451,63.295,41.203,85.418c4.292,4.003,8.794,6.657,13.434,7.349
			c0,0,29.952-8.465,36.234-16.436C1696.669,1136.797,1696.944,1136.513,1697.063,1136.477z"/>
	</g>
	<path style="fill:#2E3552;" d="M2778.834,1598.77H237.759c-1.587,0-2.886-1.299-2.886-2.886v-0.984
		c0-1.587,1.299-2.886,2.886-2.886h2541.075c1.587,0,2.886,1.299,2.886,2.886v0.984
		C2781.72,1597.471,2780.421,1598.77,2778.834,1598.77z"/>
	<g>
		<path style="fill:#F99746;" d="M2305.209,1539.189c7.191,26.881,60.329,42.701,118.455,51.981h216.906
			c52.284-25.601,52.21-56.129,56.406-140.433c8.664-174.123-82.931-258.183-123.777-244.307c-1.695,0.576-3.429,1.203-5.187,1.92
			c-11.87,4.774-25.164,13.21-38.099,33.28c0,0-40.599,67.663-74.006,108.022c-10.757,12.992-20.77,23.169-28.432,27.329
			c-0.087,0.051-0.174,0.103-0.272,0.141c-0.408,0.218-0.805,0.409-1.2,0.589c-17.701,8.103-42.654,25.089-65.441,46.517
			c0,0,0,0-0.013,0C2325.211,1457.446,2295.072,1501.3,2305.209,1539.189z"/>
		<path style="fill:#ED7D2B;" d="M2360.563,1424.229c30.412,9.344,186.94,54.529,223.776,6.617
			c26.673-34.697,10.065-123.587-4.667-181.102c-6.037-23.573-36.182-28.927-49.369-8.712c-0.13,0.199-0.26,0.398-0.389,0.599
			c0,0-40.599,67.663-74.006,108.022c-9.668,12.749-19.198,22.58-28.432,27.329c-0.087,0.051-0.174,0.103-0.272,0.141
			c-0.396,0.218-0.805,0.409-1.2,0.589C2408.303,1385.815,2383.35,1402.802,2360.563,1424.229z"/>
		<g>
			<path style="fill:#F4A269;" d="M2476.994,1204.574c0,0-10.847,16.051-17.033,49.793c-5.419,29.552-10.169,40.462-17.994,46.522
				c-7.824,6.061-51.419,23.953-51.419,23.953l3.259,7.637c0,0,63.898-8.702,71.076-19.382c7.177-10.68,34.54-73.775,32.416-88.307
				C2495.175,1210.259,2476.994,1204.574,2476.994,1204.574z"/>
			<g>
				<path style="fill:#FFB27D;" d="M2320.523,1557.065c0.575,6.231-8.102,7.747-18.149,8.248c-10.048,0.5-7.012,2.558-20.782,5.052
					c-13.77,2.494-19.289-1.273-20.285-3.135c-0.888-1.65,5.515-4.232,12.338-7.15c0.857-0.363,1.718-0.739,2.578-1.115
					c7.679-3.376,11.987-10.264,17.975-16.648c5.67-6.048,11.055-25.412,11.055-25.412l18.713-3.996c0,0-5.254,17.428-7.078,24.869
					c-1.073,4.376,0.51,9.269,1.915,12.992C2319.559,1552.796,2320.323,1554.87,2320.523,1557.065z"/>
				<path style="fill:#C65447;" d="M2302.374,1565.313c-10.048,0.5-7.012,2.558-20.782,5.052
					c-13.77,2.494-19.289-1.273-20.285-3.135c-0.888-1.65,5.515-4.232,12.338-7.15l0.105,0.117c0,0,9.684,3.287,20.858,0.248
					c9.11-2.473,17.918-7.917,24.193-9.676c0.757,2.026,1.521,4.101,1.722,6.296
					C2321.099,1563.297,2312.422,1564.813,2302.374,1565.313z"/>
			</g>
			<path style="fill:#163560;" d="M2506.868,1335.162c0,0-124.349-9.359-147.759,5.415
				c-23.409,14.774-60.954,186.866-60.954,186.866s2.317,1.857,7.492,2.418c4.813,0.521,15.414-2.309,15.414-2.309
				s53.958-77,57.758-96.398c3.801-19.398,2.873-36.707,11.528-37.171c8.654-0.464,116.537,13.115,132.855-15.633
				c16.318-28.749,2.828-57.208,2.828-57.208L2506.868,1335.162z"/>
			<g>
				<path style="fill:#FFB27D;" d="M2368.104,1577.038c0.575,6.231-8.101,7.747-18.149,8.247
					c-10.048,0.501-7.012,2.559-20.781,5.053c-13.771,2.494-19.289-1.273-20.286-3.135c-0.888-1.65,5.515-4.232,12.337-7.15
					c0.859-0.364,1.719-0.739,2.579-1.115c7.679-3.377,11.987-10.264,17.974-16.648c5.672-6.048,11.056-25.412,11.056-25.412
					l18.714-3.996c0,0-5.255,17.428-7.079,24.868c-1.073,4.376,0.511,9.27,1.915,12.993
					C2367.141,1572.769,2367.905,1574.842,2368.104,1577.038z"/>
				<path style="fill:#C65447;" d="M2349.955,1585.285c-10.048,0.501-7.012,2.559-20.781,5.053
					c-13.771,2.494-19.289-1.273-20.286-3.135c-0.888-1.65,5.515-4.232,12.337-7.15l0.107,0.116c0,0,9.683,3.288,20.857,0.249
					c9.11-2.473,17.918-7.917,24.193-9.676c0.758,2.026,1.522,4.1,1.722,6.296C2368.68,1583.27,2360.004,1584.785,2349.955,1585.285
					z"/>
			</g>
			<path style="fill:#1C468A;" d="M2531.223,1342.867c0,0-110.463,5.229-133.28,20.903
				c-22.817,15.674-53.636,189.097-53.636,189.097s2.389,1.766,7.582,2.124c4.829,0.334,15.312-2.907,15.312-2.907
				s50.919-79.041,53.962-98.572c3.043-19.532,1.442-36.791,10.072-37.592s116.96,8.569,132.147-20.793
				C2578.568,1365.766,2531.223,1342.867,2531.223,1342.867z"/>
			<path style="fill:#B5453C;" d="M2493.404,1195.735c-2.141-3.762-4.705-10.523-6.556-22.76c0.24,1.211,3.396,16.589,9.948,24.976
				c25.586,14.46,76.153,65.065,75.902,75.311c0,0,14.679-29.174,14.952-29.36c0,0,27.94-40.855-9.724-60.68
				c-19.143-10.075-20.016-24.587-20.088-37.237c-0.066-12.653-9.473-66.507-45.363-49.856c0,0-6.086-2.233-8.707-1.663
				c0,0,2.189,0.27,3.365,1.331c-4.287,0.032-10.372,0.756-15.273,3.991C2478.868,1108.361,2471.374,1178.015,2493.404,1195.735z"/>
			<path style="fill:#FFB27D;" d="M2535.865,1186.086c0,0-10.289-0.977-20.573,0c-6.989,0.663-13.913,2.833-17.854,4.479
				c-9.735,4.069-8.714,21.307,11.715,18.114C2529.582,1205.488,2537.298,1191.197,2535.865,1186.086z"/>
			<path style="fill:#FFB27D;" d="M2498.302,1198.655c-0.119,0.063-2.914,14.828,10.462,14.237
				c8.781-0.387,27.719-11.012,26.047-18.53c-0.795-3.574-7.431-12.846-8.766-34.01l-1.599,0.427l-26.876,7.209
				c0,0,1.191,8.53,1.747,16.604C2499.788,1191.371,2499.806,1197.828,2498.302,1198.655z"/>
			<path style="fill:#F4A269;" d="M2497.57,1167.988c0,0,1.191,8.53,1.747,16.604c15.213-1.445,22.342-15.886,25.129-23.813
				L2497.57,1167.988z"/>
			<path style="fill:#B5453C;" d="M2527.062,1157.627c0,0,7.146-13.152,8.343-24.071c0.855-7.796-4.973-36.091-33.396-30.065
				c0,0-8.279,1.377-15.761,7.191c-5.95,4.623-14.336,14.308-2.621,38.557l3.173,8.244L2527.062,1157.627z"/>
			<path style="fill:#FFB27D;" d="M2492.99,1175.974c0,0,36.099-1.81,34.626-24.272c-1.473-22.464,2.194-37.826-20.916-37.621
				s-27.022,9.07-28.354,16.688C2477.014,1138.386,2483.562,1175.865,2492.99,1175.974z"/>
			<path style="fill:#B5453C;" d="M2490.24,1114.625c0,0,11.63,25.693,27.042,28.58c15.411,2.887,21.714-1.611,21.714-1.611
				s-12.238-8.458-15.725-24.414C2523.271,1117.18,2496.852,1101.586,2490.24,1114.625z"/>
			<path style="fill:#B5453C;" d="M2492.83,1116.602c0,0-6.981,6.375-8.397,12.215c-1.417,5.839-1.44,17.668-4.898,17.496
				c0,0-8.633-17.415-0.949-28.105C2486.733,1106.872,2492.83,1116.602,2492.83,1116.602z"/>
			<path style="fill:#1C468A;" d="M2456.869,1337.039c2.922,3.493,12.043,4.565,21.793,6.169c7.67,1.267,15.729,2.854,21.459,6.221
				c13.014,7.64,55.53,33.462,67.991,32.287c4.831-0.455,3.928-9.678,1.001-21.915c-4.606-19.325-14.248-46.163-14.248-57.832
				c0-6.369-2.12-21.44-4.949-38.672c-0.23-1.389-0.465-2.788-0.699-4.203c-5.598-33.502-13.351-73.006-13.351-73.006
				s-8.646,18.866-25.495,18.866c-16.843,0-12.931-14.387-12.931-14.387s-15.372,1.808-19.003,5.72
				c-3.637,3.912-12.845,20.821-14.673,25.434c0,0-0.373,5.868,14.156,8.661c0,0-3.539,15.93-3.958,26.547
				c-0.311,7.845,5.353,32.395,6.981,47.665c0.577,5.408,0.654,9.652-0.225,11.577c-1.123,2.467-4.76,4.924-8.896,7.334
				C2463.611,1328.285,2453.402,1332.887,2456.869,1337.039z"/>
			<path style="fill:#163560;" d="M2471.823,1323.505c-9.325,15.898,25.29,20.679,31.021,24.044
				c13.013,7.641,52.808,35.342,65.269,34.167c4.831-0.455,3.928-9.678,1.001-21.915c-4.606-19.325-14.248-46.163-14.248-57.832
				c0-6.369-2.12-21.44-4.949-38.672l-15-14.401c0,0-16.072,41.541-31.393,48.349c-8.029,3.564-16.415,5.919-22.579,7.35
				c0.577,5.408,0.654,9.652-0.225,11.577C2479.597,1318.638,2475.96,1321.095,2471.823,1323.505z"/>
			<path style="fill:#FFB27D;" d="M2540.476,1198.522c0,0,12.825-7.788,25.225,6.986c12.4,14.773-8.813,120.387-27.187,125.813
				c-20.408,6.027-79.364-0.965-79.364-0.965l1.136-9.214c0,0,62.762-12.033,65.37-15.387S2533.955,1200.226,2540.476,1198.522z"/>
			<path style="fill:#1C468A;" d="M2535.865,1186.086c0,0,26.338,2.376,33.987,11.039s9.885,32.137,9.885,32.137
				s-23.194,18.724-51.14,11.458L2535.865,1186.086z"/>
			<g>
				
					<rect x="2418.203" y="1335.293" transform="matrix(-1 -1.224647e-16 1.224647e-16 -1 4871.1953 2674.6963)" style="fill:#9E332E;" width="34.789" height="4.11"/>
				<path style="fill:#9E332E;" d="M2425.592,1338.841c-0.34-1.36-31.979-51.044-31.979-51.044h-70.399l35.311,49.709
					L2425.592,1338.841z"/>
				<path style="fill:#B5453C;" d="M2422.631,1339.403c-0.341-1.36-32.083-51.606-32.083-51.606h-67.335l33.594,51.606H2422.631z"/>
				<path style="fill:#9E332E;" d="M2363.271,1313.768c0.693,2.013,2.888,3.645,4.9,3.645c2.014,0,3.083-1.632,2.39-3.645
					c-0.692-2.014-2.887-3.646-4.9-3.646C2363.647,1310.122,2362.578,1311.754,2363.271,1313.768z"/>
			</g>
			<path style="fill:#FFB27D;" d="M2465.406,1320.596c0,0-20.436-3.955-22.743-2.967c-2.308,0.989-15.162,12.525-13.843,14.833
				c1.318,2.307,6.592,3.955,12.524,1.978s18.787-2.967,21.095-5.934C2464.746,1325.54,2465.406,1320.596,2465.406,1320.596z"/>
		</g>
	</g>
	<g>
		<polygon style="fill:#FAFDFF;" points="2029.697,747.842 1386.662,747.842 1337.382,586.462 1980.417,586.462 		"/>
		<g>
			<path style="fill:#B7D5F9;" d="M1955.944,641.03l5.895,19.302c2.594,8.493-2.233,15.442-10.727,15.442h-532.744
				c-8.493,0-17.564-6.949-20.157-15.442l-5.895-19.302c-2.593-8.493,2.233-15.442,10.727-15.442h532.744
				C1944.28,625.588,1953.351,632.537,1955.944,641.03z"/>
			<g>
				<path style="fill:#699DEE;" d="M1849.261,645.061h-8.174l-0.767-2.508h11.427l0.659,2.161l-3.033,14.095h-3.205
					L1849.261,645.061z"/>
				<path style="fill:#699DEE;" d="M1856.233,650.681c-1.418-4.644,0.266-8.406,4.539-8.406c4.25,0,8.194,3.715,9.627,8.406
					c1.419,4.645-0.267,8.407-4.539,8.407S1857.666,655.372,1856.233,650.681z M1867.449,650.681
					c-0.978-3.204-3.428-5.829-5.936-5.829c-2.509,0-3.33,2.555-2.33,5.829c0.979,3.205,3.403,5.829,5.936,5.829
					C1867.65,656.509,1868.442,653.932,1867.449,650.681z"/>
				<path style="fill:#699DEE;" d="M1871.577,646.523c-0.688-2.252,0.285-4.156,2.584-4.156c2.276,0,4.383,1.88,5.077,4.156
					c0.688,2.253-0.286,4.157-2.584,4.157C1874.378,650.681,1872.271,648.8,1871.577,646.523z M1883.9,642.553h2.3l-6.926,16.256
					h-2.3L1883.9,642.553z M1877.172,646.523c-0.397-1.3-1.467-2.368-2.51-2.368c-1.094,0-1.416,1.068-1.019,2.368
					c0.404,1.324,1.467,2.37,2.511,2.37C1877.245,648.893,1877.569,647.825,1877.172,646.523z M1883.937,654.838
					c-0.688-2.253,0.287-4.157,2.586-4.157c2.276,0,4.383,1.881,5.078,4.157c0.688,2.252-0.287,4.156-2.585,4.156
					C1886.739,658.994,1884.632,657.113,1883.937,654.838z M1889.533,654.838c-0.396-1.301-1.466-2.369-2.51-2.369
					c-1.093,0-1.416,1.068-1.019,2.369c0.404,1.323,1.465,2.368,2.511,2.368C1889.606,657.206,1889.931,656.138,1889.533,654.838z"
					/>
			</g>
			<g>
				<path style="fill:#F99746;" d="M1763.275,625.588l15.326,50.187h-360.233c-7.078,0-14.548-4.826-18.338-11.337
					c-0.774-1.313-1.387-2.69-1.819-4.106l-5.895-19.302c-2.593-8.493,2.233-15.442,10.727-15.442H1763.275z"/>
				<path style="fill:#ED7D2B;" d="M1466.805,625.588l-15.185,50.187h-33.251c-7.078,0-14.548-4.826-18.338-11.337l11.75-38.85
					H1466.805z"/>
				<polygon style="fill:#ED7D2B;" points="1561.077,625.588 1545.893,675.774 1490.88,675.774 1506.065,625.588 				"/>
				<polygon style="fill:#ED7D2B;" points="1655.363,625.588 1640.178,675.774 1585.152,675.774 1600.338,625.588 				"/>
				<polygon style="fill:#ED7D2B;" points="1749.648,625.588 1734.463,675.774 1679.438,675.774 1694.624,625.588 				"/>
			</g>
		</g>
		<g>
			<polygon style="fill:#AFCDFB;" points="1516.074,705.502 1419.861,705.502 1417.834,698.866 1514.049,698.866 			"/>
			<polygon style="fill:#AFCDFB;" points="1495.438,724.062 1425.528,724.062 1423.502,717.426 1493.411,717.426 			"/>
			<polygon style="fill:#AFCDFB;" points="1541.537,724.062 1499.749,724.062 1497.722,717.426 1539.51,717.426 			"/>
			<polygon style="fill:#AFCDFB;" points="1612.6,724.062 1548.764,724.062 1546.737,717.426 1610.573,717.426 			"/>
			<polygon style="fill:#AFCDFB;" points="1552.441,705.502 1523.31,705.502 1521.283,698.866 1550.415,698.866 			"/>
			<polygon style="fill:#AFCDFB;" points="1668.344,705.502 1562.411,705.502 1560.385,698.866 1666.318,698.866 			"/>
		</g>
	</g>
	<g>
		<polygon style="fill:#FAFDFF;" points="1161.745,991.414 709.379,991.414 639.065,761.155 1091.431,761.155 		"/>
		<polygon style="fill:#4A75CB;" points="1097.897,876.285 702.912,876.285 673.029,778.425 1068.014,778.425 		"/>
		<g>
			<polygon style="fill:#CAE0FF;" points="767.858,798.315 700.951,798.315 699.356,793.095 766.264,793.095 			"/>
			<polygon style="fill:#CAE0FF;" points="839.424,798.315 783.778,798.315 782.184,793.095 837.83,793.095 			"/>
			<polygon style="fill:#CAE0FF;" points="968.935,798.315 853.922,798.315 852.328,793.095 967.341,793.095 			"/>
			<polygon style="fill:#CAE0FF;" points="773.57,817.02 706.662,817.02 705.068,811.8 771.976,811.8 			"/>
			<polygon style="fill:#CAE0FF;" points="845.136,817.02 789.49,817.02 787.896,811.8 843.542,811.8 			"/>
			<polygon style="fill:#CAE0FF;" points="910.854,817.02 855.208,817.02 853.614,811.8 909.26,811.8 			"/>
			<polygon style="fill:#CAE0FF;" points="1042.725,819.195 927.711,819.195 926.117,813.975 1041.131,813.975 			"/>
		</g>
		<g>
			<polygon style="fill:#CAE0FF;" points="780.811,840.735 713.904,840.735 712.31,835.515 779.218,835.515 			"/>
			<polygon style="fill:#CAE0FF;" points="852.377,840.735 796.731,840.735 795.137,835.515 850.784,835.515 			"/>
			<polygon style="fill:#CAE0FF;" points="981.889,840.735 866.876,840.735 865.282,835.515 980.295,835.515 			"/>
			<polygon style="fill:#CAE0FF;" points="786.524,859.44 719.616,859.44 718.022,854.22 784.93,854.22 			"/>
			<polygon style="fill:#CAE0FF;" points="858.089,859.44 802.443,859.44 800.85,854.22 856.496,854.22 			"/>
			<polygon style="fill:#CAE0FF;" points="923.808,859.44 868.162,859.44 866.568,854.22 922.214,854.22 			"/>
			<polygon style="fill:#CAE0FF;" points="1055.679,861.615 940.665,861.615 939.071,856.395 1054.084,856.395 			"/>
		</g>
		<g>
			<g>
				<g>
					<path style="fill:#A8D29F;" d="M967.766,957.354c-15.331,0-31.613-12.473-36.295-27.805
						c-4.682-15.332,3.983-27.805,19.314-27.805c15.331,0,31.614,12.473,36.295,27.805
						C991.762,944.881,983.097,957.354,967.766,957.354z M952.335,906.822c-12.532,0-19.614,10.195-15.787,22.727
						c3.827,12.532,17.135,22.727,29.667,22.727c12.532,0,19.614-10.195,15.787-22.727
						C978.175,917.017,964.867,906.822,952.335,906.822z"/>
				</g>
				<g>
					<path style="fill:#A8D29F;" d="M963.033,943.691c-1.059-0.077-2.177-0.534-3.137-1.294l-15.768-12.494
						c-2.131-1.689-2.889-4.366-1.694-5.982c1.194-1.616,3.89-1.557,6.023,0.132l11.141,8.828l5.476-13.064
						c0.794-1.891,3.31-2.31,5.621-0.944c2.311,1.371,3.541,4.017,2.748,5.91l-7.198,17.172c-0.427,1.016-1.381,1.653-2.608,1.739
						C963.439,943.706,963.237,943.706,963.033,943.691z"/>
				</g>
			</g>
			<g>
				<g>
					<path style="fill:#A8D29F;" d="M888.208,957.354c-15.331,0-31.613-12.473-36.295-27.805
						c-4.682-15.332,3.983-27.805,19.314-27.805c15.332,0,31.613,12.473,36.295,27.805
						C912.204,944.881,903.539,957.354,888.208,957.354z M872.777,906.822c-12.532,0-19.614,10.195-15.787,22.727
						c3.827,12.532,17.135,22.727,29.667,22.727c12.532,0,19.614-10.195,15.787-22.727
						C898.618,917.017,885.31,906.822,872.777,906.822z"/>
				</g>
				<g>
					<path style="fill:#A8D29F;" d="M883.475,943.691c-1.059-0.077-2.177-0.534-3.137-1.294l-15.768-12.494
						c-2.131-1.689-2.889-4.366-1.694-5.982c1.194-1.616,3.89-1.557,6.023,0.132l11.141,8.828l5.476-13.064
						c0.793-1.891,3.31-2.31,5.621-0.944c2.311,1.371,3.541,4.017,2.748,5.91l-7.198,17.172c-0.426,1.016-1.381,1.653-2.608,1.739
						C883.881,943.706,883.679,943.706,883.475,943.691z"/>
				</g>
			</g>
			<g>
				<g>
					<path style="fill:#A8D29F;" d="M805.8,957.354c-15.331,0-31.613-12.473-36.295-27.805
						c-4.682-15.332,3.983-27.805,19.314-27.805c15.331,0,31.613,12.473,36.295,27.805
						C829.796,944.881,821.132,957.354,805.8,957.354z M790.37,906.822c-12.532,0-19.614,10.195-15.787,22.727
						c3.827,12.532,17.135,22.727,29.667,22.727c12.532,0,19.614-10.195,15.787-22.727
						C816.21,917.017,802.902,906.822,790.37,906.822z"/>
				</g>
				<g>
					<path style="fill:#A8D29F;" d="M801.067,943.691c-1.059-0.077-2.177-0.534-3.137-1.294l-15.768-12.494
						c-2.131-1.689-2.889-4.366-1.694-5.982c1.194-1.616,3.89-1.557,6.023,0.132l11.141,8.828l5.477-13.064
						c0.793-1.891,3.31-2.31,5.621-0.944c2.311,1.371,3.542,4.017,2.748,5.91l-7.199,17.172c-0.426,1.016-1.381,1.653-2.607,1.739
						C801.474,943.706,801.271,943.706,801.067,943.691z"/>
				</g>
			</g>
			<g>
				<g>
					<path style="fill:#F1A34F;" d="M1044.521,957.354c-15.331,0-31.613-12.473-36.295-27.805
						c-4.682-15.332,3.982-27.805,19.314-27.805c15.331,0,31.613,12.473,36.295,27.805
						C1068.517,944.881,1059.853,957.354,1044.521,957.354z M1029.09,906.822c-12.532,0-19.614,10.195-15.787,22.727
						c3.827,12.532,17.135,22.727,29.667,22.727s19.614-10.195,15.787-22.727C1054.931,917.017,1041.623,906.822,1029.09,906.822z"
						/>
				</g>
				<g>
					<path style="fill:#F1A34F;" d="M1037.419,934.098L1037.419,934.098c-2.163,0-4.472-1.77-5.133-3.932l-3.607-11.812
						c-0.66-2.163,0.569-3.932,2.731-3.932l0,0c2.163,0,4.473,1.77,5.133,3.932l3.607,11.812
						C1040.812,932.328,1039.582,934.098,1037.419,934.098z"/>
					<path style="fill:#F1A34F;" d="M1040.675,943.369h-0.849c-1.929,0-3.989-1.578-4.579-3.507l0,0
						c-0.589-1.929,0.507-3.507,2.437-3.507h0.849c1.929,0,3.99,1.578,4.579,3.507l0,0
						C1043.701,941.791,1042.604,943.369,1040.675,943.369z"/>
				</g>
			</g>
		</g>
	</g>
	<g>
		<path style="fill:#ED7D2B;" d="M2125.531,945.563c0,0,57.216,59.322,59.919,81.65c2.703,22.328-27.407,57.182-27.407,57.182
			L2125.531,945.563z"/>
		<path style="fill:#163560;" d="M2099.679,1560.358c0,0-2.02,31.467-8.108,31.904c-0.811,0.059-30.881-0.007-30.881-0.007
			l-38.387-0.306c0,0,0.271-9.249,11.496-11.18c11.226-1.932,30.023-9.776,36.853-24.592
			C2077.836,1540.593,2099.679,1560.358,2099.679,1560.358z"/>
		<path style="fill:#163560;" d="M2185.179,1560.545c0,0-2.02,31.466-8.108,31.904c-0.811,0.058-30.881-0.008-30.881-0.008
			l-38.387-0.306c0,0,0.271-9.249,11.496-11.18c11.226-1.931,30.023-9.776,36.853-24.592
			C2163.336,1540.778,2185.179,1560.545,2185.179,1560.545z"/>
		<path style="fill:#163560;" d="M2057.9,1222.045c0,0,9.9,64.232,47.105,178.299c37.205,114.065,42.201,163.436,42.201,163.436
			l40.18-1.039c0,0,0.613-124.571-16.521-181.927c-17.137-57.356-3.276-206.647-3.276-206.647L2057.9,1222.045z"/>
		<path style="fill:#1C468A;" d="M2038.446,1177.403c0,0-1.632,96.758,14.852,215.601c16.483,118.842,10.698,169.261,10.698,169.261
			l40.095,1.421c0,0,24.22-118.799,17.479-178.278c-6.741-59.48,33.256-203.98,33.256-203.98L2038.446,1177.403z"/>
		<path style="fill:#FFB27D;" d="M2116.56,951.137l-21.394,13.961l-30.863-5.821c0.433-2.492,2.494-12.817,4.37-22.17
			c0.113-0.552,0.227-1.103,0.333-1.642c1.607-7.958,2.995-14.794,2.995-14.794l28.864-12.661l10.762-4.72
			c-0.027,0.168-0.853,8.834-0.967,10.099C2108.594,935.854,2116.56,951.137,2116.56,951.137z"/>
		<path style="fill:#ED7D2B;" d="M2072.244,943.973c0.6-0.251,37.204-10.966,41.176-9.646c3.971,1.321,6.307,9.015,6.307,9.015
			l-59.863,13.397C2059.863,956.74,2064.594,947.175,2072.244,943.973z"/>
		<path style="fill:#F99746;" d="M2170.216,1189.635c-6.262,28.273-109.465,31.403-136.01,5.669
			c-3.019-2.933-3.139-16.55-1.958-34.907c2.311-35.865,9.596-89.807,9.935-117.374c0.165-13.312,2.024-26.925,4.487-39.283
			c5.241-26.341,13.192-47.003,13.192-47.003s50.439-16.186,59.864-13.393C2165.135,956.792,2176.479,1161.361,2170.216,1189.635z"
			/>
		<path style="fill:#ED7D2B;" d="M2032.248,1160.396c2.311-35.865,9.596-89.807,9.935-117.374
			c0.165-13.312,2.024-26.925,4.487-39.283l30.333-5.285C2077.003,998.454,2106.385,1119.603,2032.248,1160.396z"/>
		<path style="fill:#FFB27D;" d="M2048.776,1110.435c0,0,2.056,4.944-2.292,8.252s-7.174,8.676-6.188,12.604
			c0.984,3.93,10.492,10.356,13.794,9.33c3.303-1.025,10.031-6.184,9.313-8.256c-0.719-2.073,4.558-18.169-3.475-24.387
			C2051.896,1101.76,2048.776,1110.435,2048.776,1110.435z"/>
		<path style="fill:#F99746;" d="M2083.03,949.53c0,0-29.583,5.469-53.22,40.141c-23.638,34.672-39.195,60.454-34.882,72.978
			c4.313,12.524,43.782,56.014,50.604,56.028c6.82,0.015,17.838-4.922,18.482-16.081c0,0-27.765-41.809-22.264-48.049
			c2.351-2.667,36.229-30.048,41.03-17.637C2090.725,1057.446,2083.03,949.53,2083.03,949.53z"/>
		<path style="fill:#FCA56B;" d="M2108.494,913.78c-6.354,10.713-29.973,19.938-39.821,23.327c0.113-0.552,0.227-1.103,0.333-1.642
			c1.607-7.958,2.995-14.794,2.995-14.794l28.864-12.661C2107.239,907.936,2111.117,909.37,2108.494,913.78z"/>
		<path style="fill:#FFB27D;" d="M2061.135,918.893c0,0,46.42,14.591,55.062-14.457c8.642-29.048,20.453-46.727-8.819-57.272
			c-29.272-10.544-38.354-1.181-43.598,7.813C2058.537,863.971,2049.283,914.348,2061.135,918.893z"/>
		<path style="fill:#163560;" d="M2065.609,852.181c0,0,2.89,33.831,9.888,32.377c6.997-1.453,13.344-2.528,12.298,7.666
			c-1.047,10.193-10.771,21.946,10.781,23.796c21.554,1.85,52.664-53.677,46.766-64.216
			C2128.32,821.395,2040.993,815.076,2065.609,852.181z"/>
	</g>
	<g>
		<g style="opacity:0.5;">
			<path style="fill:#AFCDFB;" d="M1100.761,601.849v-8.243h8.49v8.243H1100.761z"/>
			<path style="fill:#AFCDFB;" d="M1100.761,585.18v-8.242h8.49v8.242H1100.761z"/>
			<path style="fill:#AFCDFB;" d="M1100.761,568.512v-8.242h8.49v8.242H1100.761z"/>
			<path style="fill:#AFCDFB;" d="M1100.761,551.844v-8.243h8.49v8.243H1100.761z"/>
			<path style="fill:#AFCDFB;" d="M1100.761,535.176v-8.242h8.49v8.242H1100.761z"/>
			<path style="fill:#AFCDFB;" d="M1100.761,518.508v-8.242h8.49v8.242H1100.761z"/>
			<path style="fill:#AFCDFB;" d="M1100.761,501.84v-8.243h8.49v8.243H1100.761z"/>
			<path style="fill:#AFCDFB;" d="M1100.761,485.171v-8.242h8.49v8.242H1100.761z"/>
			<path style="fill:#AFCDFB;" d="M1100.761,468.503v-8.242h8.49v8.242H1100.761z"/>
			<path style="fill:#AFCDFB;" d="M1100.761,451.835v-8.242h8.49v8.242H1100.761z"/>
			<path style="fill:#AFCDFB;" d="M1100.761,435.167v-8.242h8.49v8.242H1100.761z"/>
			<path style="fill:#AFCDFB;" d="M1100.761,418.499v-8.242h8.49v8.242H1100.761z"/>
			<path style="fill:#AFCDFB;" d="M1100.761,401.831v-8.242h8.49v8.242H1100.761z"/>
			<path style="fill:#AFCDFB;" d="M1100.761,385.163v-8.242h8.49v8.242H1100.761z"/>
			<path style="fill:#AFCDFB;" d="M1100.761,368.495v-8.242h8.49v8.242H1100.761z"/>
			<path style="fill:#AFCDFB;" d="M1100.761,351.827v-8.242h8.49v8.242H1100.761z"/>
			<path style="fill:#AFCDFB;" d="M1100.761,335.158v-8.242h8.49v8.242H1100.761z"/>
			<path style="fill:#AFCDFB;" d="M1100.761,318.49v-8.242h8.49v8.242H1100.761z"/>
		</g>
		<g style="opacity:0.5;">
			<path style="fill:#AFCDFB;" d="M1074.807,501.84v-8.243h8.49v8.243H1074.807z"/>
			<path style="fill:#AFCDFB;" d="M1074.807,485.171v-8.242h8.49v8.242H1074.807z"/>
			<path style="fill:#AFCDFB;" d="M1074.807,468.503v-8.242h8.49v8.242H1074.807z"/>
			<path style="fill:#AFCDFB;" d="M1074.807,451.835v-8.242h8.49v8.242H1074.807z"/>
			<path style="fill:#AFCDFB;" d="M1074.807,435.167v-8.242h8.49v8.242H1074.807z"/>
			<path style="fill:#AFCDFB;" d="M1074.807,418.499v-8.242h8.49v8.242H1074.807z"/>
			<path style="fill:#AFCDFB;" d="M1074.807,401.831v-8.242h8.49v8.242H1074.807z"/>
			<path style="fill:#AFCDFB;" d="M1074.807,385.163v-8.242h8.49v8.242H1074.807z"/>
			<path style="fill:#AFCDFB;" d="M1074.807,368.495v-8.242h8.49v8.242H1074.807z"/>
			<path style="fill:#AFCDFB;" d="M1074.807,351.827v-8.242h8.49v8.242H1074.807z"/>
			<path style="fill:#AFCDFB;" d="M1074.807,335.158v-8.242h8.49v8.242H1074.807z"/>
			<path style="fill:#AFCDFB;" d="M1074.807,318.49v-8.242h8.49v8.242H1074.807z"/>
		</g>
		<g style="opacity:0.5;">
			<path style="fill:#AFCDFB;" d="M1048.366,601.849v-8.243h8.49v8.243H1048.366z"/>
			<path style="fill:#AFCDFB;" d="M1048.366,585.18v-8.242h8.49v8.242H1048.366z"/>
			<path style="fill:#AFCDFB;" d="M1048.366,568.512v-8.242h8.49v8.242H1048.366z"/>
			<path style="fill:#AFCDFB;" d="M1048.366,551.844v-8.243h8.49v8.243H1048.366z"/>
			<path style="fill:#AFCDFB;" d="M1048.366,535.176v-8.242h8.49v8.242H1048.366z"/>
			<path style="fill:#AFCDFB;" d="M1048.366,518.508v-8.242h8.49v8.242H1048.366z"/>
			<path style="fill:#AFCDFB;" d="M1048.366,501.84v-8.243h8.49v8.243H1048.366z"/>
			<path style="fill:#AFCDFB;" d="M1048.366,485.171v-8.242h8.49v8.242H1048.366z"/>
			<path style="fill:#AFCDFB;" d="M1048.366,468.503v-8.242h8.49v8.242H1048.366z"/>
			<path style="fill:#AFCDFB;" d="M1048.366,451.835v-8.242h8.49v8.242H1048.366z"/>
			<path style="fill:#AFCDFB;" d="M1048.366,435.167v-8.242h8.49v8.242H1048.366z"/>
			<path style="fill:#AFCDFB;" d="M1048.366,418.499v-8.242h8.49v8.242H1048.366z"/>
			<path style="fill:#AFCDFB;" d="M1048.366,401.831v-8.242h8.49v8.242H1048.366z"/>
			<path style="fill:#AFCDFB;" d="M1048.366,385.163v-8.242h8.49v8.242H1048.366z"/>
			<path style="fill:#AFCDFB;" d="M1048.366,368.495v-8.242h8.49v8.242H1048.366z"/>
			<path style="fill:#AFCDFB;" d="M1048.366,351.827v-8.242h8.49v8.242H1048.366z"/>
			<path style="fill:#AFCDFB;" d="M1048.366,335.158v-8.242h8.49v8.242H1048.366z"/>
			<path style="fill:#AFCDFB;" d="M1048.366,318.49v-8.242h8.49v8.242H1048.366z"/>
		</g>
		<g style="opacity:0.5;">
			<path style="fill:#AFCDFB;" d="M1026.101,635.185v-8.242h8.49v8.242H1026.101z"/>
			<path style="fill:#AFCDFB;" d="M1026.101,618.517v-8.242h8.49v8.242H1026.101z"/>
			<path style="fill:#AFCDFB;" d="M1026.101,601.849v-8.243h8.49v8.243H1026.101z"/>
			<path style="fill:#AFCDFB;" d="M1026.101,585.18v-8.242h8.49v8.242H1026.101z"/>
			<path style="fill:#AFCDFB;" d="M1026.101,568.512v-8.242h8.49v8.242H1026.101z"/>
			<path style="fill:#AFCDFB;" d="M1026.101,551.844v-8.243h8.49v8.243H1026.101z"/>
			<path style="fill:#AFCDFB;" d="M1026.101,535.176v-8.242h8.49v8.242H1026.101z"/>
			<path style="fill:#AFCDFB;" d="M1026.101,518.508v-8.242h8.49v8.242H1026.101z"/>
			<path style="fill:#AFCDFB;" d="M1026.101,501.84v-8.243h8.49v8.243H1026.101z"/>
			<path style="fill:#AFCDFB;" d="M1026.101,485.171v-8.242h8.49v8.242H1026.101z"/>
			<path style="fill:#AFCDFB;" d="M1026.101,468.503v-8.242h8.49v8.242H1026.101z"/>
			<path style="fill:#AFCDFB;" d="M1026.101,451.835v-8.242h8.49v8.242H1026.101z"/>
			<path style="fill:#AFCDFB;" d="M1026.101,435.167v-8.242h8.49v8.242H1026.101z"/>
			<path style="fill:#AFCDFB;" d="M1026.101,418.499v-8.242h8.49v8.242H1026.101z"/>
			<path style="fill:#AFCDFB;" d="M1026.101,401.831v-8.242h8.49v8.242H1026.101z"/>
			<path style="fill:#AFCDFB;" d="M1026.101,385.163v-8.242h8.49v8.242H1026.101z"/>
			<path style="fill:#AFCDFB;" d="M1026.101,368.495v-8.242h8.49v8.242H1026.101z"/>
			<path style="fill:#AFCDFB;" d="M1026.101,351.827v-8.242h8.49v8.242H1026.101z"/>
			<path style="fill:#AFCDFB;" d="M1026.101,335.158v-8.242h8.49v8.242H1026.101z"/>
			<path style="fill:#AFCDFB;" d="M1026.101,318.49v-8.242h8.49v8.242H1026.101z"/>
		</g>
		<g style="opacity:0.5;">
			<path style="fill:#AFCDFB;" d="M996.722,485.171v-8.242h8.49v8.242H996.722z"/>
			<path style="fill:#AFCDFB;" d="M996.722,468.503v-8.242h8.49v8.242H996.722z"/>
			<path style="fill:#AFCDFB;" d="M996.722,451.835v-8.242h8.49v8.242H996.722z"/>
			<path style="fill:#AFCDFB;" d="M996.722,435.167v-8.242h8.49v8.242H996.722z"/>
			<path style="fill:#AFCDFB;" d="M996.722,418.499v-8.242h8.49v8.242H996.722z"/>
			<path style="fill:#AFCDFB;" d="M996.722,401.831v-8.242h8.49v8.242H996.722z"/>
			<path style="fill:#AFCDFB;" d="M996.722,385.163v-8.242h8.49v8.242H996.722z"/>
			<path style="fill:#AFCDFB;" d="M996.722,368.495v-8.242h8.49v8.242H996.722z"/>
			<path style="fill:#AFCDFB;" d="M996.722,351.827v-8.242h8.49v8.242H996.722z"/>
			<path style="fill:#AFCDFB;" d="M996.722,335.158v-8.242h8.49v8.242H996.722z"/>
			<path style="fill:#AFCDFB;" d="M996.722,318.49v-8.242h8.49v8.242H996.722z"/>
		</g>
	</g>
	<g>
		<g style="opacity:0.5;">
			<path style="fill:#AFCDFB;" d="M2277.963,910.554v8.242h-8.49v-8.242H2277.963z"/>
			<path style="fill:#AFCDFB;" d="M2277.963,927.222v8.242h-8.49v-8.242H2277.963z"/>
			<path style="fill:#AFCDFB;" d="M2277.963,943.891v8.242h-8.49v-8.242H2277.963z"/>
			<path style="fill:#AFCDFB;" d="M2277.963,960.559v8.242h-8.49v-8.242H2277.963z"/>
			<path style="fill:#AFCDFB;" d="M2277.963,977.227v8.242h-8.49v-8.242H2277.963z"/>
			<path style="fill:#AFCDFB;" d="M2277.963,993.894v8.242h-8.49v-8.242H2277.963z"/>
			<path style="fill:#AFCDFB;" d="M2277.963,1010.563v8.242h-8.49v-8.242H2277.963z"/>
			<path style="fill:#AFCDFB;" d="M2277.963,1027.231v8.242h-8.49v-8.242H2277.963z"/>
			<path style="fill:#AFCDFB;" d="M2277.963,1043.899v8.242h-8.49v-8.242H2277.963z"/>
			<path style="fill:#AFCDFB;" d="M2277.963,1060.567v8.242h-8.49v-8.242H2277.963z"/>
			<path style="fill:#AFCDFB;" d="M2277.963,1077.235v8.242h-8.49v-8.242H2277.963z"/>
			<path style="fill:#AFCDFB;" d="M2277.963,1093.903v8.242h-8.49v-8.242H2277.963z"/>
			<path style="fill:#AFCDFB;" d="M2277.963,1110.571v8.242h-8.49v-8.242H2277.963z"/>
			<path style="fill:#AFCDFB;" d="M2277.963,1127.24v8.242h-8.49v-8.242H2277.963z"/>
			<path style="fill:#AFCDFB;" d="M2277.963,1143.908v8.242h-8.49v-8.242H2277.963z"/>
			<path style="fill:#AFCDFB;" d="M2277.963,1160.576v8.242h-8.49v-8.242H2277.963z"/>
			<path style="fill:#AFCDFB;" d="M2277.963,1177.244v8.242h-8.49v-8.242H2277.963z"/>
			<path style="fill:#AFCDFB;" d="M2277.963,1193.912v8.242h-8.49v-8.242H2277.963z"/>
		</g>
		<g style="opacity:0.5;">
			<path style="fill:#AFCDFB;" d="M2303.916,1010.563v8.242h-8.49v-8.242H2303.916z"/>
			<path style="fill:#AFCDFB;" d="M2303.916,1027.231v8.242h-8.49v-8.242H2303.916z"/>
			<path style="fill:#AFCDFB;" d="M2303.916,1043.899v8.242h-8.49v-8.242H2303.916z"/>
			<path style="fill:#AFCDFB;" d="M2303.916,1060.567v8.242h-8.49v-8.242H2303.916z"/>
			<path style="fill:#AFCDFB;" d="M2303.916,1077.235v8.242h-8.49v-8.242H2303.916z"/>
			<path style="fill:#AFCDFB;" d="M2303.916,1093.903v8.242h-8.49v-8.242H2303.916z"/>
			<path style="fill:#AFCDFB;" d="M2303.916,1110.571v8.242h-8.49v-8.242H2303.916z"/>
			<path style="fill:#AFCDFB;" d="M2303.916,1127.24v8.242h-8.49v-8.242H2303.916z"/>
			<path style="fill:#AFCDFB;" d="M2303.916,1143.908v8.242h-8.49v-8.242H2303.916z"/>
			<path style="fill:#AFCDFB;" d="M2303.916,1160.576v8.242h-8.49v-8.242H2303.916z"/>
			<path style="fill:#AFCDFB;" d="M2303.916,1177.244v8.242h-8.49v-8.242H2303.916z"/>
			<path style="fill:#AFCDFB;" d="M2303.916,1193.912v8.242h-8.49v-8.242H2303.916z"/>
		</g>
		<g style="opacity:0.5;">
			<path style="fill:#AFCDFB;" d="M2330.357,910.554v8.242h-8.49v-8.242H2330.357z"/>
			<path style="fill:#AFCDFB;" d="M2330.357,927.222v8.242h-8.49v-8.242H2330.357z"/>
			<path style="fill:#AFCDFB;" d="M2330.357,943.891v8.242h-8.49v-8.242H2330.357z"/>
			<path style="fill:#AFCDFB;" d="M2330.357,960.559v8.242h-8.49v-8.242H2330.357z"/>
			<path style="fill:#AFCDFB;" d="M2330.357,977.227v8.242h-8.49v-8.242H2330.357z"/>
			<path style="fill:#AFCDFB;" d="M2330.357,993.894v8.242h-8.49v-8.242H2330.357z"/>
			<path style="fill:#AFCDFB;" d="M2330.357,1010.563v8.242h-8.49v-8.242H2330.357z"/>
			<path style="fill:#AFCDFB;" d="M2330.357,1027.231v8.242h-8.49v-8.242H2330.357z"/>
			<path style="fill:#AFCDFB;" d="M2330.357,1043.899v8.242h-8.49v-8.242H2330.357z"/>
			<path style="fill:#AFCDFB;" d="M2330.357,1060.567v8.242h-8.49v-8.242H2330.357z"/>
			<path style="fill:#AFCDFB;" d="M2330.357,1077.235v8.242h-8.49v-8.242H2330.357z"/>
			<path style="fill:#AFCDFB;" d="M2330.357,1093.903v8.242h-8.49v-8.242H2330.357z"/>
			<path style="fill:#AFCDFB;" d="M2330.357,1110.571v8.242h-8.49v-8.242H2330.357z"/>
			<path style="fill:#AFCDFB;" d="M2330.357,1127.24v8.242h-8.49v-8.242H2330.357z"/>
			<path style="fill:#AFCDFB;" d="M2330.357,1143.908v8.242h-8.49v-8.242H2330.357z"/>
			<path style="fill:#AFCDFB;" d="M2330.357,1160.576v8.242h-8.49v-8.242H2330.357z"/>
			<path style="fill:#AFCDFB;" d="M2330.357,1177.244v8.242h-8.49v-8.242H2330.357z"/>
			<path style="fill:#AFCDFB;" d="M2330.357,1193.912v8.242h-8.49v-8.242H2330.357z"/>
		</g>
		<g style="opacity:0.5;">
			<path style="fill:#AFCDFB;" d="M2352.622,877.218v8.242h-8.489v-8.242H2352.622z"/>
			<path style="fill:#AFCDFB;" d="M2352.622,893.886v8.242h-8.489v-8.242H2352.622z"/>
			<path style="fill:#AFCDFB;" d="M2352.622,910.554v8.242h-8.489v-8.242H2352.622z"/>
			<path style="fill:#AFCDFB;" d="M2352.622,927.222v8.242h-8.489v-8.242H2352.622z"/>
			<path style="fill:#AFCDFB;" d="M2352.622,943.891v8.242h-8.489v-8.242H2352.622z"/>
			<path style="fill:#AFCDFB;" d="M2352.622,960.559v8.242h-8.489v-8.242H2352.622z"/>
			<path style="fill:#AFCDFB;" d="M2352.622,977.227v8.242h-8.489v-8.242H2352.622z"/>
			<path style="fill:#AFCDFB;" d="M2352.622,993.894v8.242h-8.489v-8.242H2352.622z"/>
			<path style="fill:#AFCDFB;" d="M2352.622,1010.563v8.242h-8.489v-8.242H2352.622z"/>
			<path style="fill:#AFCDFB;" d="M2352.622,1027.231v8.242h-8.489v-8.242H2352.622z"/>
			<path style="fill:#AFCDFB;" d="M2352.622,1043.899v8.242h-8.489v-8.242H2352.622z"/>
			<path style="fill:#AFCDFB;" d="M2352.622,1060.567v8.242h-8.489v-8.242H2352.622z"/>
			<path style="fill:#AFCDFB;" d="M2352.622,1077.235v8.242h-8.489v-8.242H2352.622z"/>
			<path style="fill:#AFCDFB;" d="M2352.622,1093.903v8.242h-8.489v-8.242H2352.622z"/>
			<path style="fill:#AFCDFB;" d="M2352.622,1110.571v8.242h-8.489v-8.242H2352.622z"/>
			<path style="fill:#AFCDFB;" d="M2352.622,1127.24v8.242h-8.489v-8.242H2352.622z"/>
			<path style="fill:#AFCDFB;" d="M2352.622,1143.908v8.242h-8.489v-8.242H2352.622z"/>
			<path style="fill:#AFCDFB;" d="M2352.622,1160.576v8.242h-8.489v-8.242H2352.622z"/>
			<path style="fill:#AFCDFB;" d="M2352.622,1177.244v8.242h-8.489v-8.242H2352.622z"/>
			<path style="fill:#AFCDFB;" d="M2352.622,1193.912v8.242h-8.489v-8.242H2352.622z"/>
		</g>
		<g style="opacity:0.5;">
			<path style="fill:#AFCDFB;" d="M2382.001,1027.231v8.242h-8.489v-8.242H2382.001z"/>
			<path style="fill:#AFCDFB;" d="M2382.001,1043.899v8.242h-8.489v-8.242H2382.001z"/>
			<path style="fill:#AFCDFB;" d="M2382.001,1060.567v8.242h-8.489v-8.242H2382.001z"/>
			<path style="fill:#AFCDFB;" d="M2382.001,1077.235v8.242h-8.489v-8.242H2382.001z"/>
			<path style="fill:#AFCDFB;" d="M2382.001,1093.903v8.242h-8.489v-8.242H2382.001z"/>
			<path style="fill:#AFCDFB;" d="M2382.001,1110.571v8.242h-8.489v-8.242H2382.001z"/>
			<path style="fill:#AFCDFB;" d="M2382.001,1127.24v8.242h-8.489v-8.242H2382.001z"/>
			<path style="fill:#AFCDFB;" d="M2382.001,1143.908v8.242h-8.489v-8.242H2382.001z"/>
			<path style="fill:#AFCDFB;" d="M2382.001,1160.576v8.242h-8.489v-8.242H2382.001z"/>
			<path style="fill:#AFCDFB;" d="M2382.001,1177.244v8.242h-8.489v-8.242H2382.001z"/>
			<path style="fill:#AFCDFB;" d="M2382.001,1193.912v8.242h-8.489v-8.242H2382.001z"/>
		</g>
	</g>
</g>
</svg>
